<svg width="22" height="18" viewBox="0 0 22 18" fill="none" xmlns="http://www.w3.org/2000/svg">
<path d="M1.25 12C1.25 14.4853 3.26472 16.5 5.75 16.5H17C19.0711 16.5 20.75 14.8211 20.75 12.75C20.75 11.1479 19.7453 9.78046 18.3316 9.24332C18.4407 8.93243 18.5 8.59814 18.5 8.25C18.5 6.59315 17.1569 5.25 15.5 5.25C15.1767 5.25 14.8654 5.30113 14.5737 5.39575C13.9765 3.1526 11.9312 1.5 9.5 1.5C6.6005 1.5 4.25 3.85051 4.25 6.75C4.25 7.08323 4.28105 7.4092 4.3404 7.72519C2.54555 8.3167 1.25 10.0071 1.25 12Z" stroke="#BABABA" stroke-width="1.5" stroke-linecap="round" stroke-linejoin="round"/>
</svg>
